<svg xmlns="http://www.w3.org/2000/svg" width="100%" height="100%" version="1.1" viewBox="-20 -20 800 160">

<title>stargen 1785284179-0.2</title>
<desc>Created by: stargen - $Revision: 1.46 $</desc>

<g stroke="black" stroke-width="1">
    <line x1="0" y1="100" x2="760" y2="100"/>
    <line x1="0" y1="90" x2="0" y2="110"/>
    <line x1="88" y1="95" x2="88" y2="105"/>
    <line x1="139" y1="95" x2="139" y2="105"/>
    <line x1="176" y1="95" x2="176" y2="105"/>
    <line x1="204" y1="95" x2="204" y2="105"/>
    <line x1="227" y1="95" x2="227" y2="105"/>
    <line x1="247" y1="95" x2="247" y2="105"/>
    <line x1="264" y1="95" x2="264" y2="105"/>
    <line x1="279" y1="95" x2="279" y2="105"/>
    <line x1="292" y1="90" x2="292" y2="110"/>
    <line x1="380" y1="95" x2="380" y2="105"/>
    <line x1="431" y1="95" x2="431" y2="105"/>
    <line x1="468" y1="95" x2="468" y2="105"/>
    <line x1="496" y1="95" x2="496" y2="105"/>
    <line x1="519" y1="95" x2="519" y2="105"/>
    <line x1="539" y1="95" x2="539" y2="105"/>
    <line x1="556" y1="95" x2="556" y2="105"/>
    <line x1="571" y1="95" x2="571" y2="105"/>
    <line x1="584" y1="90" x2="584" y2="110"/>
    <line x1="672" y1="95" x2="672" y2="105"/>
    <line x1="724" y1="95" x2="724" y2="105"/>
    <line x1="760" y1="95" x2="760" y2="105"/>
</g>

<line x1="-65" y1="95" x2="-65" y2="105" stroke="blue" stroke-width="1"/>
<line x1="-91" y1="100" x2="-19" y2="100" stroke="#66c" stroke-width="10" stroke-opacity="0.5"/>
<g font-family="Arial" font-size="10" font-style="normal" font-weight="normal" fill="black" text-anchor="middle">
    <text x="0" y="120"> 0 AU </text>
    <text x="292" y="120"> 1 AU </text>
    <text x="584" y="120"> 10 AU </text>

    <circle cx="77" cy="30" r="1" fill="none" stroke="black" stroke-width="1"/>
    <line x1="77" y1="85" x2="77" y2="85" stroke="black" stroke-width="8" stroke-opacity="0.3"/>
    <text x="77" y="80">0.01</text>

    <circle cx="133" cy="30" r="2" fill="none" stroke="black" stroke-width="1"/>
    <line x1="128" y1="85" x2="138" y2="85" stroke="black" stroke-width="8" stroke-opacity="0.3"/>
    <text x="133" y="80">0.03</text>

    <circle cx="189" cy="30" r="2" fill="none" stroke="black" stroke-width="1"/>
    <line x1="160" y1="85" x2="213" y2="85" stroke="black" stroke-width="8" stroke-opacity="0.3"/>
    <text x="189" y="80">0.05</text>

    <circle cx="249" cy="30" r="2" fill="none" stroke="black" stroke-width="1"/>
    <line x1="240" y1="85" x2="258" y2="85" stroke="black" stroke-width="8" stroke-opacity="0.3"/>
    <text x="249" y="80">0.03</text>

    <circle cx="319" cy="30" r="5" fill="none" stroke="black" stroke-width="1"/>
    <line x1="307" y1="85" x2="330" y2="85" stroke="black" stroke-width="8" stroke-opacity="0.3"/>
    <text x="319" y="80">0.93</text>

    <circle cx="372" cy="30" r="5" fill="none" stroke="black" stroke-width="1"/>
    <line x1="350" y1="85" x2="391" y2="85" stroke="black" stroke-width="8" stroke-opacity="0.3"/>
    <text x="372" y="80">1.1</text>

    <circle cx="449" cy="30" r="7" fill="none" stroke="black" stroke-width="1"/>
    <line x1="445" y1="85" x2="453" y2="85" stroke="black" stroke-width="8" stroke-opacity="0.3"/>
    <text x="449" y="80">2.5</text>

    <circle cx="494" cy="30" r="5" fill="none" stroke="black" stroke-width="1"/>
    <line x1="483" y1="85" x2="504" y2="85" stroke="black" stroke-width="8" stroke-opacity="0.3"/>
    <text x="494" y="80">1.1</text>

    <circle cx="565" cy="30" r="6" fill="none" stroke="black" stroke-width="1"/>
    <line x1="550" y1="85" x2="578" y2="85" stroke="black" stroke-width="8" stroke-opacity="0.3"/>
    <text x="565" y="80">2.0</text>

    <circle cx="652" cy="30" r="7" fill="none" stroke="black" stroke-width="1"/>
    <line x1="618" y1="85" x2="680" y2="85" stroke="black" stroke-width="8" stroke-opacity="0.3"/>
    <text x="652" y="80">2.6</text>

    <circle cx="718" cy="30" r="3" fill="none" stroke="black" stroke-width="1"/>
    <line x1="706" y1="85" x2="730" y2="85" stroke="black" stroke-width="8" stroke-opacity="0.3"/>
    <text x="718" y="80">0.27</text>

</g>
</svg>